<?xml version="1.0" encoding="UTF-8" standalone="no"?>
<!-- Created with Inkscape (http://www.inkscape.org/) -->

<svg
   xmlns:dc="http://purl.org/dc/elements/1.1/"
   xmlns:cc="http://creativecommons.org/ns#"
   xmlns:rdf="http://www.w3.org/1999/02/22-rdf-syntax-ns#"
   xmlns:svg="http://www.w3.org/2000/svg"
   xmlns="http://www.w3.org/2000/svg"
   xmlns:sodipodi="http://sodipodi.sourceforge.net/DTD/sodipodi-0.dtd"
   xmlns:inkscape="http://www.inkscape.org/namespaces/inkscape"
   width="210mm"
   height="297mm"
   viewBox="0 0 210 297"
   version="1.1"
   id="svg8"
   inkscape:version="0.92.3 (2405546, 2018-03-11)"
   sodipodi:docname="logo.svg">
  <defs
     id="defs2" />
  <sodipodi:namedview
     id="base"
     pagecolor="#ffffff"
     bordercolor="#666666"
     borderopacity="1.0"
     inkscape:pageopacity="0.0"
     inkscape:pageshadow="2"
     inkscape:zoom="0.35"
     inkscape:cx="400"
     inkscape:cy="560"
     inkscape:document-units="mm"
     inkscape:current-layer="layer1"
     showgrid="false"
     inkscape:window-width="1366"
     inkscape:window-height="705"
     inkscape:window-x="-8"
     inkscape:window-y="-8"
     inkscape:window-maximized="1" />
  <metadata
     id="metadata5">
    <rdf:RDF>
      <cc:Work
         rdf:about="">
        <dc:format>image/svg+xml</dc:format>
        <dc:type
           rdf:resource="http://purl.org/dc/dcmitype/StillImage" />
        <dc:title></dc:title>
      </cc:Work>
    </rdf:RDF>
  </metadata>
  <g
     inkscape:label="Layer 1"
     inkscape:groupmode="layer"
     id="layer1">
    <flowRoot
       xml:space="preserve"
       id="flowRoot3719"
       style="fill:black;fill-opacity:1;stroke:none;font-family:sans-serif;font-style:normal;font-weight:normal;font-size:40px;line-height:1.25;letter-spacing:0px;word-spacing:0px"><flowRegion
         id="flowRegion3721"><rect
           id="rect3723"
           width="160"
           height="168.57144"
           x="37.142857"
           y="36.805401" /></flowRegion><flowPara
         id="flowPara3725"></flowPara></flowRoot>    <path
       sodipodi:type="star"
       id="path3747"
       sodipodi:sides="5"
       sodipodi:cx="31.75"
       sodipodi:cy="33.92857"
       sodipodi:r1="22.437908"
       sodipodi:r2="20.829607"
       sodipodi:arg1="0.56931318"
       sodipodi:arg2="1.1976318"
       inkscape:flatsided="true"
       inkscape:rounded="0"
       inkscape:randomized="0"
       d="M 50.648808,46.023807 26.086799,55.640039 9.3511408,35.251758 23.569945,13.034876 49.093307,19.692369 Z"
       inkscape:transform-center-x="1.5220761"
       inkscape:transform-center-y="-0.4714498"
       style="fill:#d5e5ff;stroke-width:0.26458332"
       transform="matrix(0.80409034,0,0,0.8021485,1.2894847,0.92588962)" />
    <path
       style="fill:#87cdde;stroke-width:0.21249184"
       id="path3755"
       d="m 26.184284,8.1608324 c 1.720097,0.42141 3.312301,1.1796095 4.923504,1.8901476 1.44157,0.692401 2.946183,1.302031 4.488959,1.734484 1.09187,0.335874 1.99837,1.032295 3.090859,1.354819 1.000583,0.115839 1.925705,0.497726 2.916266,0.672272 0.528575,0.08143 1.062781,0.107486 1.596036,0.136084 0,0 -7.325989,5.228025 -7.325989,5.228025 v 0 C 35.313185,19.124637 34.751387,19.073523 34.200649,18.949691 33.200257,18.711506 32.210446,18.42673 31.213895,18.177288 30.188244,17.758351 29.258074,17.135365 28.183158,16.828894 26.63728,16.31579 25.120737,15.697701 23.655481,14.98796 22.069607,14.270213 20.46001,13.598127 18.746694,13.242197 c 0,0 7.43759,-5.0813646 7.43759,-5.0813646 z"
       inkscape:connector-curvature="0" />
    <path
       style="fill:#87cdde;stroke-width:0.21249184"
       id="path3757"
       d="m 6.582037,28.92206 c 1.6640414,-1.37141 2.718694,-3.276495 3.759404,-5.123948 1.647878,-2.925291 1.002791,-1.732086 2.549699,-4.827804 1.697304,-3.699294 3.643316,-7.268674 5.778383,-10.732205 0,0 8.10118,-3.5583829 8.10118,-3.5583829 v 0 c -2.257613,3.4546981 -4.351369,7.0030449 -6.076984,10.7588819 -1.663223,3.494472 -3.288969,7.096004 -5.734068,10.129576 0,0 -8.377614,3.353882 -8.377614,3.353882 z"
       inkscape:connector-curvature="0" />
    <path
       style="fill:#87cdde;stroke-width:0.21249184"
       id="path3759"
       d="m 43.602092,18.117746 c -0.02351,1.683891 -0.100849,3.375767 0.02916,5.05648 0.193631,1.334514 0.384656,2.667019 0.486648,4.012074 0.0026,1.121365 0.101964,2.209752 0.328501,3.305776 0.341241,0.886689 0.629412,1.801135 1.08969,2.635167 0.533082,0.716064 1.247555,1.186388 2.011096,1.625549 0.130806,0.05138 0.261616,0.10276 0.392424,0.154142 0,0 -7.528503,4.968668 -7.528503,4.968668 v 0 c -0.150515,-0.08022 -0.301029,-0.160431 -0.451544,-0.240647 -0.85808,-0.564142 -1.674173,-1.149737 -2.241852,-2.028549 -0.499433,-0.915386 -0.843069,-1.898707 -1.221235,-2.868428 -0.234413,-1.137421 -0.413596,-2.254797 -0.366879,-3.423599 -0.07903,-1.343737 -0.239044,-2.67784 -0.446864,-4.007874 -0.179228,-1.694813 -0.019,-3.403089 -0.116259,-5.104297 0,0 8.035613,-4.084462 8.035612,-4.084462 z"
       inkscape:connector-curvature="0" />
    <path
       style="fill:#87cdde;stroke-width:0.21249184"
       id="path3761"
       d="m 44.209948,15.085816 c -0.04724,1.14698 -0.05494,2.292617 0.0229,3.4377 0,0 -7.936002,4.115772 -7.936002,4.115772 v 0 c -0.110245,-1.155693 -0.08889,-2.309016 -0.122516,-3.46901 0,0 8.035616,-4.084462 8.035616,-4.084462 z"
       inkscape:connector-curvature="0" />
    <path
       style="fill:#87cdde;stroke-width:0.21249184"
       id="path3763"
       d="m 14.545827,26.350023 c 0.724809,1.251173 1.480273,2.508843 2.438513,3.597956 0.78985,0.812647 1.166515,1.898542 1.815478,2.807237 0.588581,0.804379 1.273933,1.541192 1.914941,2.310945 1.03723,1.142023 1.789536,2.500731 2.577196,3.817028 0.711711,1.203443 1.283986,2.474655 1.90046,3.726409 0.367942,1.042351 0.930038,1.991908 1.3832,2.994368 0.443102,0.709803 0.614479,1.653543 1.617383,1.206243 2.523457,-1.79569 5.97911,-3.317601 -6.236767,3.452201 -0.196405,0.108845 0.365055,-0.263038 0.531091,-0.414037 0.499877,-0.454612 0.634762,-0.693193 1.049814,-1.246089 1.21579,-1.727643 2.188787,-3.591494 3.467421,-5.276261 1.456692,-1.877899 3.135215,-3.50702 5.017677,-4.950842 3.829444,-2.800999 7.757268,-5.685535 12.496979,-6.161171 1.647861,-0.09546 3.298903,-0.0632 4.948252,-0.04407 1.772453,0.0097 3.544952,0.01507 5.317435,0.0132 1.372267,-0.154024 2.591729,0.184298 3.8546,0.652141 1.285046,0.220523 2.34423,0.885791 3.459037,1.509826 1.267758,0.518824 2.267037,1.475855 3.329623,2.307036 0,0 -7.607476,4.76778 -7.607476,4.76778 v 0 c -1.017597,-0.825309 -2.047202,-1.642539 -3.252302,-2.185076 -1.08061,-0.609359 -2.186989,-1.061312 -3.392186,-1.370077 -1.186835,-0.402986 -2.388362,-0.493029 -3.640827,-0.42977 -1.765346,-0.0099 -3.530673,-0.01919 -5.296002,-0.03128 -1.635494,0.0038 -3.27903,-0.02694 -4.906004,0.164308 -0.77732,0.129062 -1.517429,0.274846 -2.246677,0.587367 -0.248582,0.106529 -0.960434,0.496172 -0.72788,0.358244 9.770515,-5.794884 8.696886,-5.139027 5.928429,-3.417021 -1.90196,1.385738 -3.660215,2.871885 -5.108504,4.744157 -1.354671,1.604277 -2.298981,3.442515 -3.444406,5.19142 -2.29601,3.730925 -6.502383,6.373924 -10.83728,7.086694 -1.146853,-0.283026 -1.685707,-1.077314 -2.177346,-2.100935 -0.435226,-1.000041 -1.009092,-1.936447 -1.359466,-2.975245 -0.584896,-1.238803 -1.127081,-2.494497 -1.822182,-3.678795 -0.76299,-1.276289 -1.50417,-2.584684 -2.534004,-3.671966 -0.673461,-0.780995 -1.406649,-1.521702 -1.985626,-2.373616 -0.603968,-0.903664 -0.989295,-1.941755 -1.7321218,-2.751675 -0.9674633,-1.178027 -1.7492809,-2.489319 -2.5812786,-3.76299 0,0 7.8408064,-4.453651 7.8408064,-4.453651 z"
       inkscape:connector-curvature="0" />
    <path
       style="fill:#87cdde;stroke-width:0.21249184"
       id="path3765"
       d="m 44.817801,37.522099 c -0.07026,1.862931 -0.04244,3.728042 -0.02939,5.591818 -0.08479,1.373389 0.09592,2.686951 0.493684,3.996008 0.294919,1.082461 0.752137,2.123548 1.503347,2.965082 0.816416,0.910403 1.676024,1.797222 2.59843,2.602711 0.873666,0.678866 1.953014,0.91607 2.810103,1.605346 0.833595,0.672924 1.691333,1.29754 2.684238,1.712755 1.003736,0.386559 1.964678,0.771575 3.037514,0.928229 0.949244,0.403746 1.950819,0.565811 2.970725,0.653252 1.308886,0.07644 2.62115,0.0782 3.931889,0.08259 1.721758,-0.194319 3.32795,-1.039605 4.81111,-1.904348 -13.064873,8.294389 -6.437967,3.752179 -3.679009,1.34722 0.19365,-0.171849 0.3873,-0.343696 0.580953,-0.515544 0,0 8.310613,-3.356261 8.310613,-3.356261 v 0 c -0.202244,0.164219 -0.404485,0.32844 -0.606726,0.492659 -3.448615,3.272542 -7.058479,5.51397 -11.585265,7.639995 -1.594768,0.800145 -3.259051,1.559518 -5.082284,1.548227 -1.344126,-0.0033 -2.692876,0.01946 -4.030743,-0.133466 -1.028749,-0.143674 -2.01467,-0.418379 -3.010013,-0.706751 -1.097444,-0.250626 -2.118679,-0.690252 -3.155988,-1.119992 -1.002256,-0.51174 -1.918976,-1.15256 -2.797914,-1.853396 -0.922275,-0.604898 -2.032273,-0.909082 -2.84738,-1.691109 -0.915531,-0.86673 -1.820269,-1.755032 -2.651398,-2.701569 -0.796568,-0.965111 -1.374353,-2.069434 -1.677963,-3.288269 -0.431446,-1.39202 -0.719898,-2.778697 -0.584762,-4.248777 0.01289,-1.853802 0.04153,-3.709021 -0.02939,-5.561942 0,0 8.035614,-4.084463 8.035614,-4.084463 z"
       inkscape:connector-curvature="0" />
    <path
       style="fill:#87cdde;stroke-width:0.21249184"
       id="path3767"
       d="m 43.602092,33.277397 c -0.0496,1.528029 -0.04391,3.057317 -0.0377,4.585951 0,0 -7.960207,4.046133 -7.960207,4.046133 v 0 c 0.0061,-1.515849 0.01249,-3.032396 -0.0377,-4.547622 0,0 8.035614,-4.084462 8.035614,-4.084462 z"
       inkscape:connector-curvature="0" />
  </g>
</svg>
